<svg xmlns="http://www.w3.org/2000/svg" width="40" height="40" viewBox="0 0 40 40" fill="none">
<circle cx="20" cy="20" r="20" fill="#F8BD26"/>
<path fill-rule="evenodd" clip-rule="evenodd" d="M10.925 11.638C10.5108 11.638 10.175 11.9738 10.175 12.388C10.175 12.8022 10.5108 13.138 10.925 13.138H13.2101L13.8089 16.1296C13.8121 16.1506 13.8163 16.1714 13.8213 16.1918L15.0321 22.2414L15.0322 22.2419C15.1329 22.7482 15.4084 23.2029 15.8104 23.5265C16.2106 23.8486 16.7107 24.0205 17.2242 24.0125H24.2579C24.7714 24.0205 25.2715 23.8486 25.6717 23.5265C26.0739 23.2027 26.3494 22.7478 26.4499 22.2414L26.45 22.2414L26.451 22.2358L27.611 16.1533C27.6529 15.9338 27.5946 15.707 27.4521 15.5348C27.3097 15.3625 27.0978 15.2628 26.8743 15.2628H15.1651L14.5603 12.2408C14.4901 11.8903 14.1823 11.638 13.8249 11.638H10.925ZM16.5032 21.9481L15.4654 16.7628H25.9677L24.9782 21.9515C24.9459 22.1117 24.8584 22.2555 24.7311 22.3581C24.6031 22.4611 24.443 22.5158 24.2788 22.5126L24.2644 22.5125H17.2177L17.2033 22.5126C17.0391 22.5158 16.879 22.4611 16.751 22.3581C16.6231 22.2551 16.5354 22.1103 16.5034 21.9492L16.5032 21.9481ZM16.7247 26.9127C16.7387 26.9127 16.7501 26.9014 16.7501 26.8874C16.7501 26.8734 16.7387 26.862 16.7247 26.862C16.7107 26.862 16.6994 26.8734 16.6994 26.8874C16.6994 26.9014 16.7107 26.9127 16.7247 26.9127ZM15.2501 26.8874C15.2501 26.073 15.9103 25.4127 16.7247 25.4127C17.5392 25.4127 18.1994 26.073 18.1994 26.8874C18.1994 27.7018 17.5392 28.362 16.7247 28.362C15.9103 28.362 15.2501 27.7018 15.2501 26.8874ZM24.6994 26.9127C24.7134 26.9127 24.7247 26.9014 24.7247 26.8874C24.7247 26.8734 24.7134 26.862 24.6994 26.862C24.6854 26.862 24.674 26.8734 24.674 26.8874C24.674 26.9014 24.6854 26.9127 24.6994 26.9127ZM23.2247 26.8874C23.2247 26.073 23.8849 25.4127 24.6994 25.4127C25.5138 25.4127 26.174 26.073 26.174 26.8874C26.174 27.7018 25.5138 28.362 24.6994 28.362C23.8849 28.362 23.2247 27.7018 23.2247 26.8874Z" fill="white"/>
</svg>