<svg xmlns="http://www.w3.org/2000/svg" width="40" height="40" viewBox="0 0 40 40" fill="none">
<circle cx="20" cy="20" r="20" fill="#E5347C"/>
<path fill-rule="evenodd" clip-rule="evenodd" d="M21.8537 12.6788C22.4633 12.4287 23.1168 12.3 23.7769 12.3C24.4369 12.3 25.0904 12.4287 25.7 12.6788C26.3095 12.9288 26.8631 13.2951 27.3293 13.7568C27.7957 14.2183 28.1656 14.7661 28.4179 15.3689C28.6702 15.9717 28.8 16.6177 28.8 17.27C28.8 17.9224 28.6702 18.5683 28.4179 19.1711C28.1656 19.7739 27.7957 20.3218 27.3293 20.7833L20.5841 27.4606C20.4293 27.6139 20.2191 27.7 19.9998 27.7C19.7805 27.7 19.5703 27.6139 19.4155 27.4606L12.6702 20.7832C11.7286 19.851 11.2 18.5872 11.2 17.27C11.2 15.9528 11.7286 14.6891 12.6702 13.7569C13.6119 12.8246 14.8898 12.3004 16.2227 12.3004C17.5557 12.3004 18.8335 12.8246 19.7753 13.7569L19.9998 13.9792L20.2242 13.757C20.2242 13.7571 20.2242 13.757 20.2242 13.757C20.6904 13.2953 21.2442 12.9288 21.8537 12.6788ZM26.1607 14.9062C25.8474 14.596 25.4757 14.35 25.0667 14.1823C24.6577 14.0145 24.2194 13.9282 23.7769 13.9282C23.3343 13.9282 22.896 14.0145 22.4871 14.1823C22.0781 14.35 21.7063 14.596 21.3931 14.9062L20.5841 15.7071C20.4293 15.8603 20.2191 15.9464 19.9998 15.9464C19.7805 15.9464 19.5703 15.8603 19.4155 15.7071L18.6067 14.9064C17.974 14.28 17.1164 13.9286 16.2227 13.9286C15.3291 13.9286 14.4715 14.28 13.8388 14.9064C13.206 15.5328 12.85 16.383 12.85 17.27C12.85 18.1571 13.206 19.0072 13.8388 19.6337L19.9998 25.7328L26.1608 19.6337C26.4742 19.3236 26.7231 18.9551 26.8928 18.5496C27.0626 18.144 27.15 17.7092 27.15 17.27C27.15 16.8309 27.0626 16.3961 26.8928 15.9905C26.7231 15.5849 26.4741 15.2163 26.1607 14.9062Z" fill="white"/>
</svg>