<svg xmlns="http://www.w3.org/2000/svg" width="40" height="40" viewBox="0 0 40 40" fill="none">
<circle cx="20" cy="20" r="20" fill="#F79009"/>
<path fill-rule="evenodd" clip-rule="evenodd" d="M14.5503 11.53C14.7061 11.3223 14.9506 11.2 15.2103 11.2H24.781C25.0407 11.2 25.2852 11.3223 25.441 11.53L27.8337 14.7203C27.9408 14.8631 27.9987 15.0368 27.9987 15.2153V26.3811C27.9987 27.023 27.7437 27.6385 27.2899 28.0924C26.836 28.5463 26.2205 28.8012 25.5786 28.8012H14.4127C13.7709 28.8012 13.1553 28.5463 12.7015 28.0924C12.2476 27.6385 11.9926 27.023 11.9926 26.3811V15.2468C11.9922 15.2361 11.992 15.2254 11.992 15.2146C11.992 15.0149 12.063 14.8317 12.181 14.689L14.5503 11.53ZM13.6426 26.3811V16.0396H26.3487V26.3811C26.3487 26.5854 26.2676 26.7813 26.1232 26.9257C25.9787 27.0701 25.7829 27.1512 25.5786 27.1512H14.4127C14.2085 27.1512 14.0126 27.0701 13.8682 26.9257C13.7238 26.7813 13.6426 26.5854 13.6426 26.3811ZM24.3685 12.85L25.5232 14.3896H14.4681L15.6228 12.85H24.3685ZM17.6298 18.4051C17.6298 17.9494 17.2604 17.5801 16.8048 17.5801C16.3492 17.5801 15.9798 17.9494 15.9798 18.4051C15.9798 19.47 16.4028 20.4913 17.1559 21.2443C17.9089 21.9973 18.9302 22.4203 19.9951 22.4203C21.06 22.4203 22.0813 21.9973 22.8343 21.2443C23.5873 20.4913 24.0103 19.47 24.0103 18.4051C24.0103 17.9494 23.6409 17.5801 23.1853 17.5801C22.7297 17.5801 22.3603 17.9494 22.3603 18.4051C22.3603 19.0324 22.1111 19.634 21.6675 20.0775C21.224 20.5211 20.6224 20.7703 19.9951 20.7703C19.3678 20.7703 18.7661 20.5211 18.3226 20.0775C17.879 19.634 17.6298 19.0324 17.6298 18.4051Z" fill="white"/>
</svg>