<svg xmlns="http://www.w3.org/2000/svg" width="40" height="40" viewBox="0 0 40 40" fill="none">
<circle cx="20" cy="20" r="20" fill="#0086C9"/>
<path fill-rule="evenodd" clip-rule="evenodd" d="M14.3877 15.05C14.9038 15.05 15.3221 15.4194 15.3221 15.875V19.175L24.6663 19.175V15.875C24.6663 15.4194 25.0846 15.05 25.6007 15.05C26.1168 15.05 26.5351 15.4194 26.5351 15.875V24.125C26.5351 24.5806 26.1168 24.95 25.6007 24.95C25.0846 24.95 24.6663 24.5806 24.6663 24.125V20.825L15.3221 20.825V24.125C15.3221 24.5806 14.9038 24.95 14.3877 24.95C13.8717 24.95 13.4533 24.5806 13.4533 24.125V15.875C13.4533 15.4194 13.8717 15.05 14.3877 15.05ZM12.1344 17.163C12.6505 17.163 13.0688 17.5323 13.0688 17.988V22.0203C13.0688 22.4759 12.6505 22.8453 12.1344 22.8453C11.6184 22.8453 11.2 22.4759 11.2 22.0203V17.988C11.2 17.5323 11.6184 17.163 12.1344 17.163ZM27.8656 17.163C28.3817 17.163 28.8 17.5323 28.8 17.988V22.0203C28.8 22.4759 28.3817 22.8453 27.8656 22.8453C27.3495 22.8453 26.9312 22.4759 26.9312 22.0203V17.988C26.9312 17.5323 27.3495 17.163 27.8656 17.163Z" fill="white"/>
</svg>