<svg xmlns="http://www.w3.org/2000/svg" width="40" height="40" viewBox="0 0 40 40" fill="none">
<circle cx="20" cy="20" r="20" fill="#BF5AF2"/>
<path fill-rule="evenodd" clip-rule="evenodd" d="M18.4045 12.1C17.7835 12.1 17.1874 12.3458 16.7474 12.7841C16.3074 13.2225 16.0596 13.8177 16.0596 14.439V15.2777H13.6199C12.3275 15.2777 11.275 16.3223 11.275 17.6167V25.5615C11.275 26.8559 12.3275 27.9005 13.6199 27.9005H16.7912C16.7973 27.9007 16.8035 27.9007 16.8096 27.9007C16.8158 27.9007 16.8219 27.9007 16.8281 27.9005H23.1707C23.1769 27.9007 23.183 27.9007 23.1892 27.9007C23.1953 27.9007 23.2015 27.9007 23.2076 27.9005H26.379C27.6714 27.9005 28.7238 26.8559 28.7238 25.5615V17.6167C28.7238 16.3223 27.6714 15.2777 26.379 15.2777H23.9392V14.439C23.9392 13.8177 23.6914 13.2225 23.2514 12.7841C22.8114 12.3458 22.2153 12.1 21.5943 12.1H18.4045ZM22.4392 15.2777V14.439C22.4392 14.2174 22.3508 14.0043 22.1927 13.8467C22.0345 13.6891 21.8193 13.6 21.5943 13.6H18.4045C18.1795 13.6 17.9643 13.6891 17.8061 13.8467C17.648 14.0043 17.5596 14.2174 17.5596 14.439V15.2777H22.4392ZM17.5596 16.7777H22.4392V26.4005H17.5596V16.7777ZM16.0596 16.7777H13.6199C13.1506 16.7777 12.775 17.156 12.775 17.6167V25.5615C12.775 26.0223 13.1506 26.4005 13.6199 26.4005H16.0596V16.7777ZM23.9392 26.4005V16.7777H26.379C26.8482 16.7777 27.2238 17.156 27.2238 17.6167V25.5615C27.2238 26.0223 26.8482 26.4005 26.379 26.4005H23.9392Z" fill="white"/>
</svg>